<svg width="29" height="20" fill="none" xmlns="http://www.w3.org/2000/svg"><path d="M27.986 7.65c0-.552-.048-1.271-.144-2.134a18.195 18.195 0 0 0-.336-2.303 3.658 3.658 0 0 0-1.08-1.918c-.55-.528-1.198-.815-1.942-.911C22.182.12 18.681 0 14.004 0 9.33 0 5.828.12 3.526.384c-.743.096-1.39.383-1.942.911a3.658 3.658 0 0 0-1.08 1.918c-.167.672-.263 1.44-.36 2.303C.073 6.379.025 7.098 0 7.65V10c0 1.007 0 1.775.024 2.35 0 .552.048 1.271.144 2.134.048.864.168 1.631.312 2.303.167.767.527 1.39 1.079 1.918.551.528 1.199.815 1.942.911 2.302.264 5.804.384 10.48.384s8.177-.12 10.48-.384c.743-.072 1.39-.383 1.942-.911a3.658 3.658 0 0 0 1.079-1.918c.168-.672.264-1.44.36-2.303.072-.863.12-1.582.144-2.134 0-.551.024-1.343.024-2.35 0-1.007 0-1.775-.024-2.35Zm-8.442 3.19-8.01 5.011a.922.922 0 0 1-.527.168 1.18 1.18 0 0 1-.48-.12c-.335-.192-.527-.48-.527-.887v-10c0-.408.168-.695.528-.887.36-.192.695-.168 1.007.024l4.005 2.506 4.004 2.506c.312.168.48.455.48.839-.024.384-.168.671-.48.84Z" fill="#000"/></svg>