<svg width="23" height="22" fill="none" xmlns="http://www.w3.org/2000/svg"><path d="M5.216 7.15H.276V22h4.94V7.15ZM21.438 8.506c-1.034-1.127-2.413-1.702-4.113-1.702-.62 0-1.195.07-1.724.23-.505.161-.942.368-1.31.644-.344.276-.643.529-.85.782-.206.23-.39.482-.574.781V7.126H7.95l.023.713c0 .483.023 1.954.023 4.437 0 2.482 0 5.7-.023 9.7h4.917v-8.275c0-.506.046-.92.16-1.218.208-.506.53-.943.943-1.288.414-.345.942-.505 1.585-.505.85 0 1.494.298 1.884.896.414.598.598 1.425.598 2.46v7.93h4.917v-8.505c.023-2.184-.483-3.839-1.54-4.965ZM2.78 0C1.953 0 1.287.253.781.736.253 1.218 0 1.816 0 2.552c0 .735.253 1.333.758 1.839.506.483 1.15.735 1.976.735h.023c.85 0 1.517-.252 2.022-.735.506-.483.758-1.104.758-1.84 0-.735-.275-1.356-.758-1.838C4.274.253 3.607 0 2.78 0Z" fill="#000"/></svg>