<svg width="25" height="20" fill="none" xmlns="http://www.w3.org/2000/svg"><path d="M24.999 2.374c-.974.408-1.972.672-2.945.791 1.12-.647 1.85-1.582 2.263-2.781a10.676 10.676 0 0 1-3.262 1.199C20.034.528 18.792 0 17.307 0c-1.412 0-2.63.504-3.627 1.487-.998.983-1.51 2.182-1.51 3.573 0 .384.05.767.122 1.151a14.232 14.232 0 0 1-5.89-1.559A14.961 14.961 0 0 1 1.726.935a4.946 4.946 0 0 0-.706 2.542c0 .864.195 1.679.609 2.398a5.155 5.155 0 0 0 1.655 1.799 4.854 4.854 0 0 1-2.312-.648v.072c0 1.223.39 2.279 1.168 3.214.78.911 1.753 1.51 2.946 1.75-.439.12-.901.168-1.34.168-.291 0-.608-.024-.973-.072.317 1.008.925 1.847 1.801 2.494.877.648 1.875.984 2.995 1.008-1.85 1.438-3.993 2.158-6.354 2.158-.462 0-.876-.024-1.241-.072C2.36 19.256 4.989 20 7.837 20c1.826 0 3.53-.288 5.137-.84 1.606-.575 2.97-1.318 4.09-2.277a15.72 15.72 0 0 0 2.92-3.286 14.12 14.12 0 0 0 1.826-3.885c.39-1.343.609-2.71.609-4.053 0-.287 0-.503-.025-.647A10.384 10.384 0 0 0 25 2.374Z" fill="#000"/></svg>